<?xml version="1.0" encoding="utf-8"?>
<!-- Generator: Adobe Illustrator 18.0.0, SVG Export Plug-In . SVG Version: 6.00 Build 0)  -->
<!DOCTYPE svg PUBLIC "-//W3C//DTD SVG 1.1//EN" "http://www.w3.org/Graphics/SVG/1.1/DTD/svg11.dtd">
<svg version="1.1" id="Layer_1" xmlns="http://www.w3.org/2000/svg" xmlns:xlink="http://www.w3.org/1999/xlink" x="0px" y="0px"
	 viewBox="0 0 300 300" enable-background="new 0 0 300 300" xml:space="preserve">
<g>
	<path fill="#414042" d="M72,32.9c-0.4,5.1-5.9,12.5-8,17.5c-1.4,3.3-3,6.8-4.7,9.9c-3.7,6.9-7.6,12.7-8.4,20.7
		c-0.9,9.4-0.9,18.3,0.4,27.3c0.6,4.2,0.4,8.7,0.4,12.7c0,3.1-0.2,2.1,0.8,5.3c0.7,2.2,1.6,4.3,2.6,6.4c0.9,1.9,1.8,4.1,3.5,5.6
		c0.5-7.8,2.3-14.9,3.8-22.5c1.2-6.4,2.6-14.9,11.8-14.1c-0.9,3.2,1.1,8.5-0.5,11.6c4.5-5.9,13.6-9.5,19.6-13.8
		c6.4-4.5,11.9-9.7,19.1-12c-3.1,3-6.3,9.1-7.4,13c3-1,5.7-4.2,9-5.5c2.2-0.8,4.7-1.4,7-2.1c5.6-1.7,11.6-1.4,17.5-2.2
		c9.6-1.4,22.1-6.9,32-6.1c-0.1,0.7,0.2,1.6,0.1,2.2c3.3-0.2,6.2,1.1,9.4,1.6c4.7,0.7,9.3,2,13.8,3.7c3.9,1.5,12.4,7.9,13,11.8
		c1.1,7.1,1,15.3,0.9,22.6c-0.1,7.8-2.2,15.7-1.3,23.4c3.9-9.8,12.6-17.6,22-25.4c-2.6-4.3,1.9-7,5.5-8.7c-1.5-1.5-3.2-2.4-4.1-4.4
		c3.1-3,8.1-4.2,11.3-7.3c-2.3,1-4.6,0.6-7,0.2c0.9-4.6,2.5-8.4,2.8-13.4c0.2-4.9,0.1-10.9-0.6-15.8c-0.8-5.1-2.2-10.8-4.1-15.5
		c-1.5-3.8-4.3-7.2-3.8-11.6c-1.4,3.1-1.7,6.5-4.2,8.8c-0.2-7.1-1.9-13.7-2-20.7c0-7.3-0.3-14.6,0.4-21.6c-2.9,0.5-5.3,7.1-7.4,9.3
		c-0.7-2.8-0.4-7-2.4-9c-2.5,1.8-5.1,4.7-8.4,4.2c3.1-0.8,3-7.4,2.8-10.4c-4.4,0.8-11.7,4.8-16.6,3.3c1.5-2.4,4.1-5.8,5.7-7
		c-10-0.9-22.9,2.8-32.6,4.7c-9.3,1.9-19.6,3.3-28.1,7.5c1.9-3.3,4.6-7,7.7-9.4c-11.2,4.4-22.3,6.6-33.6,10.8
		C99.1,22.7,90,30.9,80.9,38c-1.6-2.7-3.2-5.5-4.7-8c-2.4,1.8-5.8,7.4-3.3,10"/>
	<path d="M206.3,150.6l-0.1-0.6c-0.5-4.6,0-9.4,0.5-14c0.4-3.1,0.7-6.3,0.8-9.4l0-0.1c0.1-7.2,0.2-15.4-0.9-22.5
		c-0.6-3.8-9.1-10.2-12.9-11.7c-4.6-1.7-9.1-2.9-13.7-3.7c-1.1-0.2-2.2-0.4-3.3-0.7c-2-0.5-4-1-6.1-0.9l-0.2,0l0-0.2
		c0-0.3,0-0.7-0.1-1.1c0-0.4-0.1-0.7-0.1-1c-6.1-0.5-13.3,1.5-20.2,3.4c-4.1,1.1-8,2.2-11.5,2.7c-2.2,0.3-4.4,0.5-6.5,0.6
		c-3.6,0.3-7.4,0.5-10.9,1.6c-0.8,0.2-1.6,0.5-2.3,0.7c-1.6,0.4-3.2,0.9-4.6,1.4c-1.6,0.6-3.1,1.7-4.6,2.8c-1.5,1.1-2.9,2.2-4.4,2.7
		l-0.3,0.1l0.1-0.3c1.1-3.8,4-9.6,7-12.7c-5.2,1.8-9.5,5-14,8.5c-1.4,1.1-2.9,2.2-4.4,3.3c-2,1.4-4.3,2.7-6.7,4.1
		c-4.9,2.8-9.9,5.7-12.9,9.7l-0.2-0.2c0.9-1.7,0.6-4.1,0.4-6.4c-0.2-1.9-0.3-3.6,0-5.1c-8.7-0.7-10.2,7.2-11.4,13.5l-0.1,0.4
		c-0.4,1.9-0.7,3.8-1.1,5.6c-1.1,5.4-2.2,11-2.7,16.9l0,0.3l-0.2-0.2c-1.6-1.3-2.5-3.2-3.3-5.1c-0.1-0.2-0.2-0.4-0.3-0.6
		c-1.1-2.3-1.9-4.3-2.6-6.4l-0.3-0.8c-0.6-1.9-0.6-1.9-0.6-3.3c0-0.3,0-0.7,0-1.3c0-0.7,0-1.4,0-2.1c0-3.5,0-7.1-0.4-10.6
		c-1.2-8.7-1.3-17.7-0.4-27.4c0.7-6.8,3.6-12,6.6-17.6c0.6-1,1.2-2.1,1.8-3.2c1.7-3.3,3.4-6.7,4.7-9.9c0.7-1.7,1.9-3.8,3.1-5.9
		c2.2-3.8,4.6-8.2,4.9-11.5l0.3,0c-0.2,3.4-2.6,7.5-4.9,11.6c-1.2,2.1-2.4,4.2-3.1,5.9c-1.3,3.2-3,6.6-4.7,9.9
		c-0.6,1.1-1.2,2.2-1.8,3.2C54.6,69,51.7,74.3,51,81c-0.9,9.7-0.8,18.6,0.4,27.3c0.5,3.5,0.5,7.1,0.5,10.6c0,0.7,0,1.4,0,2.1
		c0,0.5,0,0.9,0,1.3c0,1.4,0,1.4,0.6,3.2l0.3,0.8c0.7,2,1.5,4.1,2.6,6.3c0.1,0.2,0.2,0.4,0.3,0.6c0.8,1.7,1.6,3.5,3,4.8
		c0.4-5.7,1.5-11.3,2.6-16.6c0.4-1.8,0.8-3.7,1.1-5.6l0.1-0.4c1.2-6.2,2.7-14.6,11.9-13.8l0.2,0l0,0.2c-0.4,1.4-0.2,3.2,0,5.1
		c0.2,2,0.4,4-0.1,5.7c3.1-3.6,7.8-6.3,12.4-9c2.4-1.4,4.7-2.7,6.6-4.1c1.5-1.1,3-2.2,4.4-3.3c4.7-3.6,9.2-7,14.7-8.7l0.6-0.2
		l-0.4,0.4c-3,2.9-6.1,8.8-7.3,12.7c1.4-0.5,2.7-1.5,4.1-2.5c1.5-1.1,3-2.2,4.6-2.8c1.4-0.5,3.1-1,4.6-1.4c0.8-0.2,1.6-0.4,2.3-0.7
		c3.5-1.1,7.3-1.3,11-1.6c2.1-0.2,4.4-0.3,6.5-0.6c3.5-0.5,7.4-1.6,11.5-2.7c7-1.9,14.3-3.9,20.5-3.4l0.2,0l0,0.2
		c0,0.3,0,0.7,0.1,1.1c0,0.3,0.1,0.7,0.1,1c2.1-0.1,4,0.4,6,0.9c1.1,0.3,2.2,0.5,3.3,0.7c4.6,0.7,9.2,1.9,13.8,3.7
		c3.9,1.5,12.5,7.9,13.1,11.9c1.1,7.1,1,15.3,0.9,22.5l0,0.1c0,3.1-0.4,6.3-0.8,9.4c-0.5,4.4-1,9-0.6,13.4
		c4.1-9.7,12.9-17.6,21.7-24.8c-0.7-1.2-0.9-2.4-0.6-3.5c0.7-2.4,3.6-4,6.1-5.3c-0.4-0.4-0.9-0.8-1.3-1.2c-1-0.9-2-1.7-2.7-3.1
		l0-0.1l0.1-0.1c1.5-1.5,3.6-2.5,5.5-3.5c1.8-1,3.7-1.9,5.3-3.3c-2,0.6-4,0.3-6,0l-0.5-0.1l0-0.1c0.3-1.6,0.7-3.2,1.1-4.7
		c0.7-2.7,1.5-5.5,1.6-8.6c0.3-5.7,0.1-11.5-0.6-15.7c-0.8-5.4-2.3-11-4.1-15.5c-0.4-1-0.9-2-1.4-3c-1.2-2.4-2.5-4.9-2.4-7.8
		c-0.3,0.7-0.5,1.5-0.8,2.2c-0.7,2.2-1.4,4.3-3.1,5.9l-0.2,0.2l0-0.3c-0.1-3.3-0.5-6.6-1-9.8c-0.5-3.5-1-7.2-1-10.9
		c0-1.3,0-2.6,0-3.9c-0.1-5.8-0.1-11.8,0.4-17.5c-1.8,0.5-3.4,3.3-4.9,5.8c-0.8,1.4-1.5,2.7-2.2,3.4l-0.2,0.2l-0.1-0.3
		c-0.2-0.9-0.3-1.8-0.4-2.8c-0.3-2.3-0.5-4.6-1.9-6c-0.5,0.4-1,0.7-1.5,1.2c-2,1.6-4.2,3.4-6.9,3l-0.7-0.1l0.7-0.2
		c2.6-0.7,2.9-5.8,2.7-10c-1.3,0.3-3,0.8-4.7,1.4c-3.9,1.4-8.4,2.9-11.8,1.8l-0.2-0.1l0.1-0.2c1.5-2.4,3.9-5.5,5.5-6.8
		c-7.8-0.6-17.4,1.5-25.9,3.4c-2.2,0.5-4.3,1-6.3,1.4c-1.6,0.3-3.2,0.6-4.8,0.9c-8,1.5-16.2,3.1-23.2,6.5l-0.4,0.2l0.2-0.4
		c2-3.6,4.5-6.7,7-8.9c-5.7,2.2-11.4,3.8-17,5.5c-5.2,1.5-10.5,3-15.8,5c-8.9,3.3-16.7,9.6-24.2,15.6c-1.5,1.2-3.1,2.5-4.6,3.7
		l-0.1,0.1l-0.1-0.1c-0.6-1-1.2-2-1.7-3c-1-1.6-2-3.3-2.9-4.9c-1.6,1.3-3.8,4.3-4,7c-0.1,1.1,0.2,2,0.8,2.7l-0.2,0.2
		c-0.7-0.7-1-1.7-0.9-2.9c0.2-2.6,2.4-5.9,4.2-7.3l0.1-0.1l0.1,0.1c0.9,1.6,2,3.4,3,5c0.6,0.9,1.1,1.9,1.7,2.8
		c1.5-1.2,3-2.4,4.5-3.6c7.6-6.1,15.4-12.4,24.3-15.7c5.3-2,10.6-3.5,15.8-5c5.8-1.7,11.8-3.4,17.8-5.8l0.9-0.4L143.5,8
		c-2.6,2-5.3,5.3-7.4,9c6.9-3.3,15-4.9,22.9-6.3c1.6-0.3,3.2-0.6,4.8-0.9c2-0.4,4.1-0.9,6.3-1.4c8.6-1.9,18.4-4.1,26.3-3.4l0.4,0
		l-0.3,0.2c-1.5,1.2-4,4.4-5.6,6.8c3.3,0.9,7.6-0.6,11.4-1.9c1.8-0.6,3.5-1.2,4.9-1.5l0.2,0l0,0.2c0.3,5.8-0.5,9.2-2.3,10.3
		c2.3,0,4.2-1.5,6.1-3c0.6-0.4,1.1-0.9,1.6-1.2l0.1-0.1l0.1,0.1c1.5,1.4,1.8,3.9,2,6.2c0.1,0.9,0.2,1.8,0.4,2.5
		c0.6-0.8,1.3-1.9,2-3.2c1.5-2.6,3.3-5.6,5.2-6l0.2,0l0,0.2c-0.6,5.8-0.5,11.8-0.4,17.7c0,1.3,0,2.6,0,3.9c0,3.7,0.5,7.3,1,10.9
		c0.4,3.1,0.8,6.2,1,9.5c1.5-1.5,2.1-3.4,2.8-5.5c0.3-1,0.7-2,1.1-3l0.4-0.9l-0.1,0.9c-0.4,3.2,1,5.9,2.3,8.5c0.5,1,1,2,1.4,3
		c1.8,4.5,3.3,10.2,4.1,15.6c0.6,4.3,0.9,10.1,0.6,15.8c-0.2,3.2-0.9,6-1.6,8.7c-0.4,1.5-0.8,3-1.1,4.6l0.2,0
		c2.3,0.4,4.4,0.7,6.5-0.3l0.8-0.3l-0.6,0.6c-1.7,1.6-3.8,2.8-5.9,3.9c-2,1-3.9,2-5.4,3.4c0.6,1.2,1.6,2,2.6,2.9
		c0.5,0.4,1,0.8,1.5,1.3l0.1,0.1l-0.2,0.1c-2.5,1.2-5.4,2.9-6.1,5.2c-0.3,1.1-0.1,2.2,0.6,3.4l0.1,0.1l-0.1,0.1
		c-8.9,7.4-18,15.4-21.9,25.3L206.3,150.6z"/>
</g>
<path d="M50.6,123c0.7-1.2,1.5-2.4,1.7-3.8c0.2-1.6-0.7-3-1.7-4.3c-0.4,0.7-0.8,1.5-1.3,2.2c1.1,0,2.2,0,3.3,0
	c0.8,0,1.5-0.7,1.5-1.5c0-6.8-1.8-13.4-6-18.8c-0.1,0.8-0.2,1.5-0.3,2.3c2.1-1,4.5-1.3,6.7-2.2c0.9-0.4,0.9-1.7,0.3-2.3
	c-2.7-2.8-2.5-7.9-2.4-11.4c0.1-4.1,0.6-8.2,1.4-12.3c0.3-1.8-2.5-2.6-2.8-0.8c-0.8,4.5-1.4,9.2-1.5,13.8c-0.1,4.2,0.2,9.5,3.3,12.7
	c0.1-0.8,0.2-1.5,0.3-2.3c-2.1,1-4.5,1.3-6.7,2.2c-0.9,0.4-0.8,1.6-0.3,2.3c3.7,4.8,5.1,10.8,5.1,16.8c0.5-0.5,1-1,1.5-1.5
	c-1.1,0-2.2,0-3.3,0c-1,0-1.9,1.3-1.3,2.2c0.6,0.7,1.3,1.6,1.3,2.6c0,0.9-0.9,1.9-1.3,2.6C47.1,123.2,49.7,124.6,50.6,123L50.6,123z
	"/>
<path d="M210.5,120.4c1,1.8,2.2,3.5,3.6,5.1c1.2,1.4,3.2-0.6,2.1-2.1c-1.2-1.4-2.2-2.9-3.1-4.5C212,117.3,209.5,118.8,210.5,120.4
	L210.5,120.4z"/>
<path d="M80.6,97.9c-4.6,4.7-8,10.3-11.3,15.9c-0.7,1.2,0.7,2.8,2,2c14.3-8.9,26.8-21.1,43-26.5c-0.5-0.8-0.9-1.6-1.4-2.4
	c-5.7,5.8-10,12.9-12.6,20.7c-0.5,1.3,1.5,2.5,2.4,1.4c4.1-5,9-9,14.8-11.9c5.4-2.7,11.3-4.3,17.2-5.5c12.4-2.4,25.1-2.7,37.4-5.6
	c-0.3-0.9-0.5-1.9-0.8-2.8c-1.5,0.4-2,1.5-2.9,2.6c-0.7,0.8-0.5,2.1,0.6,2.4c8.1,2.3,16.5,2.3,24.9,2.3c0-1,0-1.9,0-2.9
	c-1.5,0.1-2.6,0.9-2.4,2.5c0.2,1.3,1.8,2.4,2.7,3.1c3.4,2.7,7.2,5.2,11.5,6.1c-0.2-0.8-0.4-1.6-0.6-2.4c-0.7,0.5-1.5,0.6-2.3,0.7
	c-1.1,0.1-1.8,1.2-1.3,2.2c3.5,6.3,5,13.4,8.3,19.8c0.9,1.7,3.4,0.2,2.5-1.5c-3.3-6.4-4.8-13.5-8.3-19.8c-0.4,0.7-0.8,1.5-1.3,2.2
	c1.7-0.1,3-0.5,4.4-1.5c0.9-0.7,0.3-2.2-0.6-2.4c-3.4-0.7-6.2-2.5-9-4.5c-0.7-0.5-1.4-1-2.1-1.6c-0.4-0.3-0.7-0.7-1.1-1
	c-0.4-0.4-0.7,1.1-0.5,1.1c1.8-0.1,1.9-2.9,0-2.9c-8.1,0-16.2,0-24.1-2.2c0.2,0.8,0.4,1.6,0.6,2.4c0.4-0.5,0.9-1.6,1.6-1.9
	c1.8-0.5,1-3.2-0.8-2.8c-12.4,2.9-25.3,3.2-37.8,5.7c-6.1,1.2-12,2.9-17.5,5.7c-6,3-11.2,7.2-15.4,12.4c0.8,0.5,1.6,0.9,2.4,1.4
	c2.5-7.2,6.5-13.9,11.9-19.4c1-1,0-2.9-1.4-2.4C97,92,84.3,104.2,69.7,113.2c0.7,0.7,1.3,1.3,2,2c3.2-5.4,6.5-10.8,10.9-15.3
	C83.9,98.6,81.9,96.6,80.6,97.9L80.6,97.9z"/>
<path d="M73.4,102c-4.5,1.2-8.8,3.3-13.3,4.4c-0.8,0.2-1.2,1-1,1.8c1.3,5.2,0.8,10.9-1.1,15.9c-0.7,1.7,2.1,2.5,2.8,0.8
	c2.1-5.5,2.5-11.8,1.1-17.5c-0.3,0.6-0.7,1.2-1,1.8c4.5-1.2,8.8-3.3,13.3-4.4C76,104.3,75.2,101.5,73.4,102L73.4,102z"/>
<path d="M49,123.8c2.2,6.6,4.4,13.3,7.9,19.3c0.8,1.4,3,0.5,2.7-1.1c-0.4-1.5-0.7-3-1.1-4.4c-0.2-0.6-0.8-1.1-1.4-1.1
	c-0.9,0-1.8,0.1-2.3,0.9c-0.2,0.4-0.3,0.9-0.3,1.3c0-0.4,0,0-0.1,0.2c0.8,0.5,1.7,1,2.5,1.5c0.5-0.9,0.9-1.9,1.4-2.8
	c0.8-1.7-1.7-3.1-2.5-1.5c-0.5,0.9-1,1.9-1.4,2.8c-0.8,1.7,1.7,3.1,2.5,1.5c0.2-0.3,0.4-0.6,0.5-1c0.1-0.3,0-0.5,0-0.8
	c-0.1,0.8-1.3,0.7-0.3,0.7c-0.5-0.4-0.9-0.7-1.4-1.1c0.4,1.5,0.7,3,1.1,4.4c0.9-0.4,1.8-0.7,2.7-1.1c-3.4-5.8-5.5-12.2-7.6-18.6
	C51.3,121.2,48.5,122,49,123.8L49,123.8z"/>
<path d="M57.9,124.5c0,3.7-1.1,7.4-1.1,11.1c0,1.9,2.9,1.9,2.9,0c0-3.7,1.1-7.4,1.1-11.1C60.8,122.6,57.9,122.6,57.9,124.5
	L57.9,124.5z"/>
<path d="M56.8,134.9c5.8,27.3-1,56.7,10.3,82.9c2.8,6.6,6.9,12.6,11.9,17.8c4.9,5.1,10.2,10,16.3,13.6c4.7,2.8,9.9,4.5,15.4,4.7
	c5.6,0.3,11.2-1.1,16.5-2.9c6.8-2.4,13.4-5.7,19.8-9.1c6.1-3.2,12.2-6.6,18-10.3c11.1-7.2,21.2-15.9,28.8-27
	c3.1-4.6,5.7-9.5,7.8-14.6c2.3-5.5,3.9-11.3,5.8-17c3.9-11.9,8-24.7,7.1-37.4c-0.1-1.9-3-1.9-2.9,0c1.1,16-5.6,31.1-10.1,46.1
	c-4,13.4-11.6,25.1-21.6,34.6c-9.8,9.3-21.6,16.3-33.5,22.6c-6.5,3.4-13.1,6.8-20,9.3c-5.2,1.9-10.7,3.1-16.3,2.8
	c-5.5-0.3-10.6-2.5-15.2-5.5c-6.1-3.9-11.6-9.2-16.3-14.7c-9.2-10.7-13.3-24.4-14.7-38.3c-2.1-19.4-0.1-39.2-4.2-58.4
	C59.2,132.3,56.4,133.1,56.8,134.9L56.8,134.9z"/>
<path d="M210.5,123.8c-1.2,2.5-2.1,5.1-2.8,7.8c-0.3,1.1-0.7,2.4,0.4,3.1c1.3,0.9,2.2-0.7,2.7-1.6c0.8-1.7-1.7-3.1-2.5-1.5
	c-0.1,0.2-0.2,0.4-0.3,0.6c-0.4,0.7-0.3,0,0.5-0.1c0.4,0,0.7,0.1,1.1,0.1c0,0,0,0,0,0c0.2,0.3,0.4,0.6,0.7,0.9
	c0.1,0.2,0,0.6,0.1,0.2c0.1-0.3,0.1-0.6,0.2-0.9c0.2-0.8,0.5-1.6,0.8-2.4c0.5-1.6,1-3.2,1.8-4.6
	C213.8,123.5,211.3,122.1,210.5,123.8L210.5,123.8z"/>
<path d="M217.5,138.7c5.6-3.4,10.5-7.7,16.5-10.4c2.2-1,4.8-1.8,7.1-0.8c3.1,1.3,4.2,5.5,4.9,8.1c1.6,6.3-0.8,11.9-4.9,17
	c-4.6,5.8-10.8,10.6-17.1,14.9c-6.4,4.4-13.1,8.3-19.7,12.4c-1.9,1.2,0.4,3.8,2.3,2.6c12.2-7.6,25.1-14.8,34.9-25.1
	c4.5-4.7,8.3-10.4,8.7-16.8c0.2-3.5-0.8-7.1-2.2-10.3c-1.2-2.6-3.2-5.1-6.1-6.1c-4.6-1.6-9.5,0.9-13.3,3c-4.7,2.7-8.9,6.1-13.5,8.9
	C213.2,137.3,215.6,139.9,217.5,138.7L217.5,138.7z"/>
<path d="M58.3,141c-2.2-2.7-4.9-5.7-8.9-6.5c-3.8-0.8-7.4,1.3-10.1,3.2c-4.3,3.2-5.2,8-4.5,12.5c0.8,5.5,3.5,10.8,6.4,15.7
	c3.1,5.4,6.8,10.5,10.6,15.6c2.9,3.8,5.9,7.6,8.6,11.5c1.2,1.7,4.3,0.2,3.2-1.5c-6.3-9.1-13.7-17.6-19.3-27.1
	c-2.8-4.8-5.4-10-6-15.4c-0.5-4.8,1.6-9.7,7.7-11.5c4-1.2,7.1,2.8,9,5C56.4,144.1,59.6,142.6,58.3,141L58.3,141z"/>
<path d="M209.8,134.5c0-0.6,0.4-1.1,0.4-1.7c0.2-1.6-1.7-2.6-2.7-1.1c-0.7,1.1-0.7,1.9-0.4,3.1c0.3,1.7,0.7,3.3,1.1,5
	c0.8,3,1.9,6,3.2,8.8c0.8,1.6,2.9,0.4,2.7-1.1c-1-4.9-1.5-9.8-3.3-14.5c-0.7-1.7-3.1-1.1-2.8,0.8c1.1,6.4,2.1,12.9,4.5,18.9
	c0.7,1.7,3.5,1,2.8-0.8c-2.4-6.1-3.4-12.5-4.5-18.9c-0.9,0.3-1.9,0.5-2.8,0.8c1.8,4.7,2.4,9.6,3.3,14.5c0.9-0.4,1.8-0.7,2.7-1.1
	c-2.2-4.5-3.3-9.3-4.3-14.1c0,0.4-0.1,0.7-0.1,1.1c0.2-0.3,0.3-0.7,0.5-1c-0.9-0.4-1.8-0.7-2.7-1.1c-0.1,0.8-0.5,1.6-0.5,2.4
	C206.8,136.4,209.7,136.4,209.8,134.5L209.8,134.5z"/>
<path d="M65.2,130.3c1.6,3.2,4.3,3.9,6.8,4.3c3.7,0.6,7.4,0.6,11.1,1.5c1.9,0.5,1.9-3.3,0.1-3.9c-6-2-11.9-5.3-18.1-5.8
	c-1.9-0.2-2,3.4-0.1,3.9c7.1,1.7,14.6,3,21.2,7.8c0.4-1.1,0.8-2.2,1.2-3.4c-7.7-3.3-15.5-6.2-23.4-8.1c-1.7-0.4-2,2.9-0.4,3.7
	c6.1,3.3,12.4,5.4,18.7,7.5c1.9,0.6,1.9-3.3,0.1-3.9c-6.1-2-12.1-4-18-7.2c-0.1,1.2-0.3,2.5-0.4,3.7c7.6,1.9,15.2,4.6,22.6,7.9
	c1.5,0.7,2.8-2.2,1.2-3.4c-7.1-5.2-15-6.7-22.6-8.6c0,1.3,0,2.6-0.1,3.9c6.1,0.6,12.1,3.9,18.1,5.8c0-1.3,0-2.6,0.1-3.9
	c-3.2-0.7-6.3-0.9-9.4-1.2c-1.5-0.2-5-0.1-6-2.2C66.6,126.6,64.1,128.1,65.2,130.3L65.2,130.3z"/>
<path d="M130,124.7c-0.4,0.4-0.3,0.1,0,0.1c0.4,0.1,0.7,0.2,1.1,0.4c1,0.9,0,2.8,0.5,1.8c-0.1,0.2,0.3-0.5,0.3-0.6
	c0.4-0.8,0.9-1.5,1.4-2.3c0.7-1.2,1.5-2.4,2.4-3.4c-0.6-0.9-1.3-1.8-1.9-2.7c-1.3,2.3-2.6,4.6-4,6.8c-1.2,1.9-2.4,4.1-3.8,5.6
	c-1.4,1.5-0.3,4.2,1.3,3.4c2.6-1.4,4.9-3.8,7.5-5.1c-0.4-1.1-0.9-2.2-1.3-3.4c-2.2,2.2-4.6,3.6-7.1,4.9c-1.8,0.9-0.8,4.5,1,3.6
	c3.3-1.6,6.5-2.7,9.7-4.8c1.7-1.2,0.8-4.6-1-3.6c-2.6,1.4-4.9,3.8-7.5,5.1c-1.8,1-0.8,4.5,1,3.6c7.9-3.9,16-7,24.2-8.9
	c8.2-2,16.7-2.8,24.7-0.9c0.2-1.3,0.4-2.6,0.6-4c-7.7-1.1-15.5-2.1-23.3-2.1c-6.8,0-14.7,0.3-20.9,5.7c-1.7,1.4,0,4.5,1.6,3.1
	c2.5-2.2,5.5-3.1,8.4-3.8c3.8-0.9,7.7-1.1,11.5-1c7.4,0,14.8,1,22.1,2.1c1.9,0.3,2.4-3.5,0.6-4c-8.3-2-17-1.1-25.5,0.9
	c-8.4,2-16.8,5.2-25,9.2c0.3,1.2,0.6,2.4,1,3.6c2.6-1.4,4.9-3.8,7.5-5.1c-0.3-1.2-0.6-2.4-1-3.6c-3.1,2.1-6.4,3.2-9.7,4.8
	c0.3,1.2,0.6,2.4,1,3.6c2.8-1.4,5.4-3,7.8-5.4c1.4-1.4,0.3-4.2-1.3-3.4c-2.6,1.4-4.9,3.8-7.5,5.1c0.4,1.1,0.9,2.2,1.3,3.4
	c1.6-1.7,2.9-4,4.1-6c1.5-2.3,2.9-4.7,4.3-7.2c1-1.8-0.5-4.2-1.9-2.7c-1.7,1.8-3.2,4.3-4.4,6.7c-0.6,1.1-1.1,2.1-0.8,3.4
	c0.3,1.9,2.1,1.1,2.9,0.2C133.2,126.2,131.6,123.1,130,124.7L130,124.7z"/>
<path d="M102.7,228.3c6.8,0.4,13.7-1.4,20-3.8c6.9-2.7,13.4-6.3,19.6-10.5c2.7-1.9,5.4-3.9,7.9-6.1c1.8-1.5,3.6-2.9,5.2-4.7
	c3.6-3.9,6.7-8.4,9.5-12.9c1-1.5,2-3.1,2.7-4.8c0.3-0.7,0.5-1.6-0.1-2.2c-0.7-0.7-1.7-0.5-2.3,0.2c-1.3,1.3,0.7,3.4,2.1,2.1
	c0.1-0.1,0.3-0.2-0.1,0.1c-2.5,1.7-2.1-1.2-2-1.5c-0.1,0.4,0.1-0.2-0.1,0.2c-0.3,0.7-0.7,1.3-1,1.9c-1.1,2-2.4,3.9-3.6,5.8
	c-2.8,4.2-5.9,8.6-9.8,11.8c-5.1,4.2-10.2,8.1-15.9,11.5c-6.4,3.8-13.2,6.9-20.4,8.7c-3.7,0.9-7.5,1.4-11.4,1.2
	C100.9,225.2,100.9,228.1,102.7,228.3L102.7,228.3z"/>
<path d="M94.6,187.2c1.1,2.6,2.7,4.9,5.4,6c2.8,1.1,5.9,0.5,8.6-0.5c1.7-0.7,1-3.5-0.8-2.8c-2,0.8-4,1.3-6.1,0.8
	c-2.1-0.5-3.5-2.3-4.3-4.3C96.7,184.7,93.9,185.4,94.6,187.2L94.6,187.2z"/>
<path d="M130.9,151.5c16-3.4,31.9-7.1,47.8-10.8c-0.5-1-1.1-2-1.6-2.9c-5,10.1-15,13.7-23.2,15.1c-8.6,1.4-18.2,0.9-26.3-3.7
	c-1.7-1-2.5,2.9-0.8,3.9c8.7,4.9,19,5.3,28.2,3.6c9-1.6,19.2-5.9,24.6-16.9c0.8-1.6-0.5-3.2-1.6-2.9c-15.9,3.7-31.9,7.4-47.8,10.8
	C128.3,148,129.1,151.9,130.9,151.5L130.9,151.5z"/>
<path d="M60.8,148.3c9.3,3,18.8,4.4,28.2,5.9c-0.3-1.1-0.7-2.2-1-3.3c-8.5,10.9-20.3,3.1-28.3-4.7c-1.5-1.5-2.9,1.8-1.5,3.3
	c4.7,4.7,10.1,8.8,16,10.2c5.9,1.5,11.5-0.6,15.8-6.1c1-1.3,0.1-3.1-1-3.3c-9.2-1.5-18.4-2.9-27.4-5.8C59.7,144,59,147.7,60.8,148.3
	L60.8,148.3z"/>
<path d="M127.2,146.8c8.5,0,17-1.8,25.2-3.9c8.3-2.2,16.8-5,24.4-9.3c1.7-1,0.2-3.5-1.5-2.7c-1.6,0.8-3.1,1.5-4.7,2.2
	c-1.2,0.6-2.4,1.1-3.6,1.6c-0.5,0.2-0.9,0.4-1.4,0.6c-0.2,0.1-1.1,0.2-0.6,0.2c-1.9,0.1-1.9,3.2,0,3.1c2.1-0.1,4.4-1.6,6.2-2.4
	c1.8-0.8,3.7-1.7,5.5-2.6c-0.5-0.9-1-1.8-1.5-2.7c-7.4,4.2-15.6,6.9-23.7,9c-8,2.1-16.2,3.8-24.5,3.8
	C125.3,143.8,125.3,146.8,127.2,146.8L127.2,146.8z"/>
<path d="M60.5,143.8c4.5,0,9,1.2,13.2,2.5c4,1.3,8,2.8,11.6,5c1.6,1,3.1-1.6,1.5-2.5c-3.8-2.3-8.1-3.9-12.3-5.2
	c-4.5-1.4-9.3-2.6-14-2.7C58.6,140.9,58.6,143.8,60.5,143.8L60.5,143.8z"/>
<path d="M229.7,136.2c-4-0.8-7.2,3.8-9.1,6.6c-2.9,4.1-5.3,8.8-6.9,13.6c-0.6,1.8,2.2,2.5,2.8,0.8c1.4-4,3.4-7.8,5.6-11.4
	c1.1-1.8,2.4-3.5,3.9-5c0.7-0.7,2.1-1.9,2.9-1.7C230.7,139.4,231.5,136.6,229.7,136.2L229.7,136.2z"/>
<path d="M52.8,152.2c2.3,2.3,4.6,4.7,6.4,7.5c1,1.5,3.6,0.1,2.5-1.5c-2-3-4.4-5.6-6.9-8.1C53.5,148.8,51.4,150.9,52.8,152.2
	L52.8,152.2z"/>
<path d="M53,74.8c1.1-8.5,6.5-15.2,11.9-21.6c-0.8-0.6-1.5-1.2-2.3-1.8c-3.2,4.3-5.9,8.7-7.9,13.7c-0.6,1.5,1.9,2.6,2.7,1.1
	c2.9-5.9,5.4-12,8.2-18c3-6.4,6.6-12.5,11.1-18.1c1.2-1.5-0.6-3.2-2.1-2.1c-2.7,2.1-0.6,4.6,1.6,5.9c1.2,0.7,2.5,1.4,3.6,2.2
	c0.4,0.3,0.8,0.7,1,1.1c0-0.1,0,0.2,0,0.1c0,0.2-0.2,0.4-0.3,0.7c-1,1.4,1.1,2.9,2.3,1.8c9-8.9,19.5-16,30.9-21.4
	c11.5-5.4,23.9-8.9,36.3-11.6c-0.4-0.9-0.7-1.8-1.1-2.7c-5.7,3.5-11.4,7.9-14,14.2c-0.5,1.3,1.1,2.2,2.1,1.6
	c20.3-10.6,43.8-9,65.3-15.4c-0.4-0.9-0.7-1.8-1.1-2.7c-4.2,2.2-7,5.8-10.3,9.1c-1.1,1.2,0.3,3.2,1.8,2.3c2.1-1.3,5-1.3,7.5-1.6
	c2.8-0.3,5.6-0.6,8.1-1.8c-0.7-0.7-1.3-1.3-2-2c-1.5,3.3-0.2,7.2-0.2,10.7c0,1.4,2,2,2.7,0.7c0.7-1.2,2.2-1.8,3.3-2.5
	c1.5-0.8,3-1.6,4.2-2.8c-0.8-0.3-1.7-0.7-2.5-1c0.1,3.5,2.2,7.2,1.2,10.7c-0.5,1.6,1.8,2.4,2.7,1.1c2.7-4,5.6-7.9,6.8-12.6
	c-0.9-0.1-1.9-0.3-2.8-0.4c0,8.1-0.6,16.3-0.4,24.4c0.1,7.7,0.9,15.5,3.8,22.7c0.6,1.5,2.8,1.4,2.8-0.4c0-2,0.7-3.9,1.2-5.8
	c0.6-2.1,1-4.2,1-6.4c-1,0-1.9,0-2.9,0c1.2,11.4,5.4,22.2,7.6,33.4c0.8,4.1,1.4,8.4,0.7,12.5c-0.7,4.3-2.4,8.5-3.8,12.6
	c-0.6,1.6,1.8,2.5,2.7,1.1c0.5-0.8,4.2-0.4,5.1-0.4c1.8,0,4.1-0.1,5.2-1.8c-0.8-0.5-1.7-1-2.5-1.5c-1.2,2.3-4,3.1-6.2,4.1
	c-2.6,1.1-5.4,2.2-7.2,4.5c-0.6,0.8-0.5,2.2,0.6,2.4c2.6,0.6,5.2,1.1,7.8,1.7c-0.3-0.6-0.7-1.2-1-1.8c-0.3,0.9-1.7,1.3-2.4,1.6
	c-1.3,0.5-2.6,0.9-3.9,1.4c-2.3,1.1-2.9,3.2-2.5,5.6c0.1,0.5,0.6,0.9,1,1c0,0,0,0,0,0c0.8,0.2,1.5-0.3,1.8-1c0.1-0.3,0.1-0.7,0.2-1
	c0-0.3,0.1-0.5,0.2-0.8c0.2-0.6,0.2-0.1-0.3-0.1c1.8-0.3,1.1-3.1-0.8-2.8c-1.8,0.3-1.7,2.6-2.1,3.8c0.6-0.3,1.2-0.7,1.8-1
	c0,0,0,0,0,0c0.3,0.3,0.7,0.7,1,1c0.1,0.6,0,0.1,0-0.1c0-0.3,0-0.6,0-0.9c0-0.4,0-0.6,0.3-0.9c0.7-0.7,2.1-1,3-1.3
	c2.3-0.8,4.7-1.6,5.6-4c0.3-0.7-0.3-1.6-1-1.8c-2.6-0.6-5.2-1.1-7.8-1.7c0.2,0.8,0.4,1.6,0.6,2.4c3.6-4.5,11-3.9,13.8-9.2
	c0.9-1.6-1.5-3.1-2.5-1.5c-0.5,0.8-4.2,0.4-5.1,0.4c-1.8,0-4.1,0.1-5.2,1.8c0.9,0.4,1.8,0.7,2.7,1.1c1.4-4,3-8.1,3.8-12.3
	c0.7-4.2,0.4-8.4-0.4-12.6c-2-11.6-6.6-22.7-7.8-34.4c-0.2-1.8-2.9-1.9-2.9,0c-0.1,4.2-2.1,8.1-2.2,12.2c0.9-0.1,1.9-0.3,2.8-0.4
	c-2.9-7.1-3.6-14.8-3.7-22.4c-0.1-8,0.4-16,0.4-23.9c0-1.6-2.4-2-2.8-0.4c-1.2,4.4-4,8.1-6.5,11.9c0.9,0.4,1.8,0.7,2.7,1.1
	c1.1-3.9-1-7.6-1.1-11.5c0-1.3-1.5-1.9-2.5-1c-2.4,2.3-6.3,2.9-8,5.9c0.9,0.2,1.8,0.5,2.7,0.7c0-1.7-0.2-3.3-0.4-5
	c-0.1-1.3-0.4-3,0.2-4.3c0.6-1.3-0.6-2.6-2-2c-4.8,2.3-11,0.5-15.6,3.3c0.6,0.8,1.2,1.5,1.8,2.3c3.1-3.1,5.7-6.6,9.7-8.7
	c1.5-0.8,0.4-3.1-1.1-2.7c-10.9,3.2-22.3,4.4-33.5,6.2c-11.2,1.7-22.3,4.3-32.5,9.6c0.7,0.5,1.4,1.1,2.1,1.6
	c2.3-5.6,7.7-9.5,12.7-12.5c1.4-0.9,0.5-3-1.1-2.7c-12.5,2.7-24.9,6.4-36.6,11.7c-11.8,5.4-22.7,12.8-31.9,22
	c0.8,0.6,1.5,1.2,2.3,1.8c1.9-2.7-0.4-5-2.6-6.4c-1.2-0.7-2.4-1.4-3.6-2.2c-0.3-0.2-0.6-0.5-0.7-0.7c0.3,0.5-0.1,0.4,0.5-0.1
	c-0.7-0.7-1.4-1.4-2.1-2.1C70,33.7,66.4,39.6,63.3,46c-3,6.2-5.5,12.6-8.6,18.8c0.9,0.4,1.8,0.7,2.7,1.1c1.9-4.7,4.6-8.9,7.6-13
	c1-1.3-1.2-3-2.3-1.8C57.1,57.9,51.4,65,50.2,74.1C49.9,75.9,52.7,76.7,53,74.8L53,74.8z"/>
<path d="M119.3,255.4c1.1,2.6,0.6,5.7-0.4,8.3c-0.7,1.8,2.1,2.5,2.8,0.8c1.3-3.4,1.5-7.2,0.1-10.6
	C121,252.2,118.5,253.7,119.3,255.4L119.3,255.4z"/>
<path d="M90.6,250.3c-9.7,10.8-22.7,18.5-35.3,25.4c-1.3,0.7-0.7,2.8,0.7,2.7c0.9,0,1.7-0.2,2.5-0.4c0.6-0.2,1.3-0.6,1.9-0.7
	c1.9-0.1,1.9-3,0-2.9c-1.6,0.1-2.9,1.1-4.4,1.1c0.2,0.9,0.5,1.8,0.7,2.7c12.8-7,26-14.8,35.9-25.8C93.9,250.9,91.8,248.9,90.6,250.3
	L90.6,250.3z"/>
<path d="M182.5,216c0,7.1,0.8,14.1,2.8,20.9c1.8,6.1,4.3,12,6.3,18.1c0.6,1.8,3.4,1,2.8-0.8c-1.9-5.8-4.3-11.5-6.1-17.4
	c-2.1-6.8-2.9-13.8-2.9-20.9C185.4,214.1,182.5,214.1,182.5,216L182.5,216z"/>
<path d="M187.3,233.8c23.8-0.1,48.9,6.4,65,24.9c3.9,4.4,7.3,9.7,9.2,15.2c0.6,1.8,3.4,1,2.8-0.8c-5.5-16.1-20.4-28.2-35.6-34.7
	c-13.1-5.5-27.3-7.6-41.4-7.6C185.4,230.9,185.4,233.8,187.3,233.8L187.3,233.8z"/>
<path d="M95.6,253.6c4.3,9.2,11.1,17,19.7,22.6c8.2,5.3,17.7,8.3,27.3,9.3c19.1,2,39.5-4.1,53.4-17.5c8.5-8.2,13.7-19,15.2-30.6
	c0.2-1.9-2.7-1.8-2.9,0c-1.2,9.6-5.3,18.7-11.8,25.9c-6.3,7.1-14.5,12.2-23.3,15.5c-18,6.6-39.2,5.6-55.7-4.6
	c-8.5-5.3-15.1-13-19.4-22C97.3,250.5,94.8,252,95.6,253.6L95.6,253.6z"/>
<path d="M204.4,108.8c2.2,7.8,2,15.9,1.5,23.8c-0.5,8.2-1.5,16.4-1.5,24.6c0,1.7,2.8,2,3.3,0.4c2.7-8,7-15.4,12.3-22.3
	c1.2-1.6-1.7-3-2.9-1.5c-5.5,7.1-9.9,14.7-12.7,23c1.1,0.1,2.2,0.3,3.3,0.4c0-8.4,1.1-16.7,1.6-25.1c0.5-8,0.6-16.2-1.6-24.1
	C207.1,106.2,203.9,107,204.4,108.8L204.4,108.8z"/>
<path d="M53.8,156c-1.6,5.7-0.8,14.4,5.4,17c1.7,0.7,3.2-1.8,1.5-2.5c-5-2.2-5.4-9.2-4.1-13.8C57.1,155,54.3,154.2,53.8,156
	L53.8,156z"/>
<path d="M223.6,141.5c0,3.5-1.2,7.1-2.5,10.3c-1.2,3.1-2.9,6.7-5.6,8.8c-1.5,1.1,0.6,3.2,2.1,2.1c2.9-2.3,4.7-6,6.1-9.4
	c1.5-3.7,2.8-7.8,2.9-11.8C226.5,139.7,223.6,139.7,223.6,141.5L223.6,141.5z"/>
<path d="M51.2,118.4c1.6,2.7,3.5,5.9,6.4,7.4c1.6,0.9,3.1-1.6,1.5-2.5c-2.4-1.3-3.9-4.1-5.3-6.4C52.8,115.3,50.3,116.8,51.2,118.4
	L51.2,118.4z"/>
<path d="M50.4,112.3c1.6,1.6,3,3.3,4.6,5c1.1,1.1,2.2,2.7,3.9,2.9c1.9,0.2,1.8-2.7,0-2.9c0.6,0.1,0.3,0.1,0.1-0.1
	c-0.2-0.2-0.5-0.4-0.7-0.6c-0.6-0.6-1.2-1.2-1.7-1.8c-1.3-1.5-2.6-3-4.1-4.4C51.1,108.9,49.1,111,50.4,112.3L50.4,112.3z"/>
<path d="M49.1,101.4c1.7,3.4,3.6,6.7,5.6,9.9c0.7,1.1,1.4,2.5,2.4,3.4c1.4,1.3,2.9-0.1,2.6-1.7c-0.3-1.8-3.1-1.1-2.8,0.8
	c-0.1-0.6,1.4-1.8,2.2-1.1c-0.1-0.1-0.2-0.2-0.3-0.3c0,0-0.5-0.7-0.7-1c-0.8-1.2-1.6-2.5-2.3-3.7c-1.5-2.5-2.9-5-4.2-7.6
	C50.8,98.3,48.3,99.7,49.1,101.4L49.1,101.4z"/>
<path d="M50,98.9c2.4,6.5,6.2,12.3,10.5,17.6c1.2,1.5,3.2-0.6,2.1-2.1c-3.9-5-7.5-10.4-9.7-16.4C52.2,96.4,49.4,97.2,50,98.9
	L50,98.9z"/>
<path d="M61.7,82.6c-0.4,5,1.4,10.5,3.4,14.9c1.7,3.6,5.3,8.9,9.9,6c1.6-1,0.1-3.5-1.5-2.5c-3.1,1.9-5.5-3.9-6.4-6
	c-1.5-3.7-2.9-8.3-2.6-12.4C64.7,80.7,61.8,80.8,61.7,82.6L61.7,82.6z"/>
<path d="M64,88.1c3.1,5.6,4.9,13,11.5,15.5c1.7,0.7,2.5-2.1,0.8-2.8c-5.5-2.1-7.2-9.5-9.8-14.2C65.6,85,63.1,86.5,64,88.1L64,88.1z"
	/>
<path d="M69.1,90.4c1.7,5,3.5,10,7.3,13.9c1.3,1.3,3.4-0.7,2.1-2.1c-3.4-3.5-5-8.1-6.5-12.6C71.4,87.9,68.6,88.6,69.1,90.4
	L69.1,90.4z"/>
<path d="M82.6,104.8c2-6.5,6.4-12,11.1-16.7c4.9-5,10.5-9.4,16.4-13.2c1.6-1,0.1-3.5-1.5-2.5c-6.1,4-11.8,8.5-17,13.6
	c-5.1,5.1-9.7,11.1-11.9,18C79.2,105.8,82,106.5,82.6,104.8L82.6,104.8z"/>
<path d="M82.4,105.1c3.4-7.2,10.8-11.3,16.8-16.2c1.5-1.2-0.6-3.2-2.1-2.1c-6.1,5-13.7,9.3-17.2,16.8
	C79.1,105.3,81.6,106.8,82.4,105.1L82.4,105.1z"/>
<path d="M78.1,86.9c0.4,4.9-1.5,9.5-2.1,14.3c-0.2,1.9,2.7,1.8,2.9,0c0.6-4.8,2.6-9.4,2.1-14.3C80.9,85,78,85,78.1,86.9L78.1,86.9z"
	/>
<path d="M208.6,129.7c4.4-0.4,8.3-3,11.7-5.5c3.8-2.9,7.4-6.2,10.2-10.1c1.1-1.5-1.4-3-2.5-1.5c-2.5,3.3-5.6,6.3-8.9,8.8
	c-3,2.3-6.7,5-10.6,5.4C206.7,127,206.7,129.9,208.6,129.7L208.6,129.7z"/>
<path d="M212.3,123.3c3.5-0.4,6.4-2.5,9-4.7c2.7-2.2,5.1-4.8,7.4-7.4c1.2-1.4-0.8-3.5-2.1-2.1c-2,2.3-4.1,4.6-6.4,6.6
	c-2.2,1.9-5,4.3-7.9,4.6C210.5,120.7,210.5,123.6,212.3,123.3L212.3,123.3z"/>
<path d="M208.8,115.7c5.1-3.6,8.2-9.1,10.4-14.8c2.2-5.9,3.4-12.4,2.5-18.7c-0.3-1.8-3.1-1.1-2.8,0.8c0.8,5.5-0.4,11.2-2.2,16.4
	c-1.8,5.2-4.8,10.6-9.4,13.8C205.8,114.3,207.3,116.8,208.8,115.7L208.8,115.7z"/>
<path d="M208.4,118c4.5-1.7,7.6-5.5,10-9.5c2.5-4.2,4.3-9,5.3-13.8c0.4-1.8-2.4-2.6-2.8-0.8c-0.9,4.4-2.5,8.6-4.6,12.4
	c-2,3.5-4.8,7.4-8.7,8.8C205.9,115.8,206.7,118.6,208.4,118L208.4,118z"/>
<path d="M210.4,118.4c2.3-1.2,4.3-2.7,6.1-4.5c1.3-1.3-0.7-3.4-2.1-2.1c-1.6,1.6-3.5,3-5.5,4C207.3,116.7,208.7,119.2,210.4,118.4
	L210.4,118.4z"/>
<path d="M110.9,100.6c10.8-12.9,24.7-25,41.3-29.4c1.8-0.5,1-3.3-0.8-2.8c-17.1,4.5-31.5,16.8-42.6,30.1
	C107.6,100,109.7,102.1,110.9,100.6L110.9,100.6z"/>
<path d="M112.7,99.8c3.3-5.5,9-9.2,14.4-12.4c5.6-3.3,11.4-6,17-9.3c1.6-1,0.1-3.5-1.5-2.5c-5.8,3.5-11.9,6.3-17.7,9.8
	c-5.6,3.3-11.3,7.3-14.7,13C109.2,99.9,111.7,101.4,112.7,99.8L112.7,99.8z"/>
<path d="M170,86c9.4-5.3,19.4-9.8,26.8-17.7c1.3-1.4-0.8-3.4-2.1-2.1c-7.3,7.7-17.1,12.2-26.3,17.3C166.9,84.4,168.4,86.9,170,86
	L170,86z"/>
<path d="M174.1,85.1c3.4,0.3,7-1.4,10-2.8c3.6-1.8,7.2-3.9,10.4-6.4c1.5-1.1,0-3.6-1.5-2.5c-2.9,2.2-6,4.1-9.3,5.8
	c-2.8,1.5-6.4,3.3-9.6,3C172.2,82.1,172.2,85,174.1,85.1L174.1,85.1z"/>
<path d="M165.4,154.5c0.7,0.5,1.4,1,2.1,1.5c0.3,0.2,0.6,0.5,0.9,0.8c0,0,0.3,0.4,0.1,0.1c0.2,0.3,0-0.3,0,0c0.1,0.8,1.1,1.2,1.8,1
	c0.8-0.2,1.1-1,1-1.8c-0.1-0.8-1-1.5-1.6-2c-0.9-0.8-1.9-1.4-2.8-2.1C165.3,150.9,163.8,153.4,165.4,154.5L165.4,154.5z"/>
<path d="M169.8,154.7c0.1,0,0.2,0,0.3,0c-0.1,0-0.1,0,0,0c0.1,0,0.2,0,0.3,0.1c0.4,0.1-0.2-0.1,0.2,0.1c0.1,0,0.2,0.1,0.2,0.2
	c-0.1-0.1-0.1-0.1,0,0.1c0.1,0.1,0.2,0.2,0.3,0.5c0.4,0.7,1.3,0.9,2,0.5c0.7-0.4,0.9-1.3,0.5-2c-0.8-1.5-2.3-2.3-3.9-2.3
	c-0.8,0-1.5,0.7-1.5,1.5C168.4,154,169,154.7,169.8,154.7L169.8,154.7z"/>
<path d="M70.1,159.1c-0.9,1-1,2.4-1,3.7c0,1.9,2.9,1.9,2.9,0c0-0.4,0-0.9,0-1.3c0,0.2,0.1-0.3,0.1-0.3c0.1-0.2,0.1-0.2,0-0.1
	c0.1-0.1,0.1-0.2,0,0c0.5-0.6,0.6-1.5,0-2.1C71.6,158.6,70.6,158.5,70.1,159.1L70.1,159.1z"/>
<path d="M71.2,160.7c0,0.7,0,1.4,0,2.1c0,0.8,0.7,1.5,1.5,1.5c0.8,0,1.5-0.7,1.5-1.5c0-0.7,0-1.4,0-2.1c0-0.8-0.7-1.5-1.5-1.5
	C71.9,159.2,71.2,159.9,71.2,160.7L71.2,160.7z"/>
<path d="M73.8,152.1C74,152.4,73.6,151.8,73.8,152.1c0.2,0.3,0.3,0.4,0.4,0.6c0.3,0.5,0.6,0.9,0.9,1.3c0.8,1,1.8,1.8,3,2.1
	c1.2,0.3,2.4-1.1,1.6-2.1c-1.1-1.6-2.1-3.2-3.2-4.8c-0.9-1.4-3-0.5-2.7,1.1c0.3,1.3,0.9,2.4,2,3.1c0.8,0.5,1.9,0.5,2.6,1.2
	c1.4,1.3,3.4-0.8,2.1-2.1c-0.8-0.7-1.6-1.1-2.6-1.4c-0.8-0.3-1.1-0.6-1.3-1.6c-0.9,0.4-1.8,0.7-2.7,1.1c1.1,1.6,2.1,3.2,3.2,4.8
	c0.5-0.7,1.1-1.4,1.6-2.1c-1.6-0.5-2.1-2.2-3.1-3.3C74.6,148.7,72.5,150.7,73.8,152.1L73.8,152.1z"/>
<path d="M160.1,144.9c0.8,1.1,1.6,2.3,2.7,3.1c1.4,0.9,3.2,0.6,4.7,0.2c1.5-0.4,1.3-3.1-0.4-2.8c-2.9,0.4-4.5-2.3-5.6-4.6
	c-0.8,0.5-1.7,1-2.5,1.5c2,3.6,5.8,4.5,9.6,3.3c1.8-0.6,1-3.4-0.8-2.8c-2.5,0.8-5,0.5-6.3-2c-0.9-1.7-3.4-0.2-2.5,1.5
	c1.6,3.2,4.2,6.5,8.2,6c-0.1-0.9-0.3-1.9-0.4-2.8c-0.8,0.2-1.9,0.6-2.6,0c-0.7-0.5-1.1-1.3-1.6-2C161.5,142,159,143.4,160.1,144.9
	L160.1,144.9z"/>
<path d="M163.6,147.2c1.6,0.6,3.3,0.1,4.6-0.9c-0.8-0.5-1.6-0.9-2.4-1.4c-0.1,0.2-1,0.8-1.2,1c-1.1,1,0.1,2.8,1.4,2.4
	c1.6-0.5,3.1-0.8,4.6-1.7c1.6-1,0.2-3.2-1.5-2.5c-0.9,0.4-2,0.3-3,0.3c0.1,0.9,0.3,1.9,0.4,2.8c1.6-0.5,3.2-1.1,4.8-1.6
	c-0.4-0.9-0.7-1.8-1.1-2.7c-1,0.5-2.3,0.6-3.4,0.9c0.3,0.9,0.5,1.9,0.8,2.8c1.6-0.5,3.2-1.1,4.8-1.6c1.8-0.6,1-3.4-0.8-2.8
	c-1.6,0.5-3.2,1.1-4.8,1.6c0.4,0.9,0.7,1.8,1.1,2.7c2.1-1.5,4.6-2,7.1-2.5c1.8-0.4,1.1-3.2-0.8-2.8c-2.7,0.5-5.5,1.2-7.8,2.8
	c-1.3,0.9-0.5,3.2,1.1,2.7c1.6-0.5,3.2-1.1,4.8-1.6c1.8-0.6,1-3.4-0.8-2.8c-1.6,0.5-3.2,1.1-4.8,1.6c-1.8,0.6-1,3.4,0.8,2.8
	c1.4-0.4,2.8-0.6,4.1-1.2c1.5-0.7,0.4-3.2-1.1-2.7c-1.6,0.5-3.2,1.1-4.8,1.6c-1.5,0.5-1.3,2.9,0.4,2.8c1.6,0,3-0.1,4.4-0.7
	c-0.5-0.8-1-1.7-1.5-2.5c-1.2,0.8-2.5,1-3.9,1.4c0.5,0.8,0.9,1.6,1.4,2.4c0.8-0.7,1.7-1.2,2-2.2c0.4-1.5-1.3-2.3-2.4-1.4
	c-0.5,0.4-1.2,0.4-1.8,0.2C162.6,143.7,161.9,146.5,163.6,147.2L163.6,147.2z"/>
<path d="M78.9,155.2c1.8-0.5,3.5-0.8,5.1-1.7c1.4-0.8,0.5-3.2-1.1-2.7c-1.4,0.4-2.8,0.6-4.2,1.1c0.4,0.9,0.7,1.8,1.1,2.7
	c1.2-0.5,2.5-0.5,3.7-1.1c1.6-0.7,0.4-3-1.1-2.7c-0.4,0.1-0.9,0.5-1.1,0.5c-1.4,0.3-1.3,2.4,0,2.8c0.7,0.2,1.3,0.2,2.1,0.1
	c0.5-0.1,1-0.5,1.5-0.6c1.9-0.1,1.9-3.1,0-2.9c-1,0.1-1.9,0.8-2.8,0.6c0,0.9,0,1.9,0,2.8c0.4-0.1,0.9-0.5,1.1-0.5
	c-0.4-0.9-0.7-1.8-1.1-2.7c-1.2,0.5-2.5,0.5-3.7,1.1c-1.5,0.7-0.4,3.1,1.1,2.7c1.4-0.4,2.8-0.6,4.2-1.1c-0.4-0.9-0.7-1.8-1.1-2.7
	c-1.4,0.8-2.9,1-4.4,1.4C76.3,152.9,77.1,155.7,78.9,155.2L78.9,155.2z"/>
<path d="M123.7,131.6c-0.2,0.6-0.5,1.1-0.4,1.8c0.1,1,1.3,1.8,2.2,1.3c1.1-0.5,1.8-2.1,2.1-3.3c0.4-1.6-2-2.6-2.9-1.3
	c-0.6,0.8-1.2,1.8-1.9,2.4c-0.8,0.7-0.9,1.9-0.1,2.6c2,1.7,3.5-1.3,4.1-2.8c0.5-1.2-0.7-2.9-2.1-2.2c-1.1,0.5-2.5,1.2-3,2.4
	c-0.6,1.5,1.2,3.1,2.5,2c1-0.8,1.8-1.8,2.8-2.6c-0.7-0.9-1.3-1.8-2-2.7c-1.6,1.3-2.7,3.1-4,4.6c-1.2,1.4,0.8,3.5,2.3,2.4
	c1.2-1,2.3-2.2,3.5-3.1c-0.7-0.9-1.3-1.8-2-2.7c-1.6,1.3-2.7,3.1-4,4.6c-0.9,1,0,3,1.5,2.7c3.2-0.8,6.4-2,9.6-2.8
	c2-0.5,1.8-3.4-0.4-3.3c-3.4,0.2-6.7,0.5-9.8,1.7c-1.7,0.7-1.1,3.4,0.8,3.2c4-0.5,7.8-1.6,11.4-3.5c3.4-1.7,6.5-3.9,9.9-5.6
	c1.9-1,0.7-4.1-1.2-3.1c-3.2,1.7-6.3,3.7-9.5,5.4c-3.5,1.9-7.1,3-11,3.5c0.3,1.1,0.5,2.1,0.8,3.2c2.9-1.1,5.9-1.4,9-1.5
	c-0.1-1.1-0.3-2.2-0.4-3.3c-3.2,0.8-6.4,2-9.6,2.8c0.5,0.9,1,1.8,1.5,2.7c1.1-1.3,2.1-2.9,3.4-4c1.6-1.3-0.3-4-2-2.7
	c-1.2,1-2.3,2.2-3.5,3.1c0.8,0.8,1.5,1.6,2.3,2.4c1.1-1.3,2-2.9,3.4-4c1.6-1.3-0.3-4-2-2.7c-1,0.8-1.8,1.8-2.8,2.6
	c0.8,0.7,1.7,1.3,2.5,2c0-0.1,0.9-0.5,1.2-0.7c-0.7-0.7-1.4-1.5-2.1-2.2c-0.1,0.2-0.2,0.5-0.3,0.7c-0.1,0.2-0.2,0.3-0.2,0.5
	c-0.5,1.1,0.1-0.8,1.5,0.4c0,0.9,0,1.7-0.1,2.6c1-0.9,1.8-1.9,2.6-3c-1-0.4-1.9-0.9-2.9-1.3c0-0.2-0.3,0.5-0.3,0.6
	c-0.3,0.5-0.5,0.4,0.3,0.1c0.7,0.4,1.5,0.9,2.2,1.3c0,0.5,0,0.5,0.2,0C127.5,130.9,124.5,129.6,123.7,131.6L123.7,131.6z"/>
<path d="M122.2,130c-0.7,2.7-1.6,5.4-2.7,8c0.9,0.3,1.9,0.5,2.8,0.8c0.6-1.5,1.1-3.1,1.5-4.7c0.3-1.2,0.7-2.4,0.7-3.7
	c0-1.6-2.5-2-2.8-0.4c-0.6,2.9-1.5,5.6-2.1,8.5c-0.4,1.8,2.4,2.6,2.8,0.8c0.6-2.9,1.5-5.6,2.1-8.5c-0.9-0.1-1.9-0.3-2.8-0.4
	c0,1-0.4,2-0.6,2.9c-0.4,1.6-0.9,3.1-1.5,4.7c-0.7,1.8,2.1,2.5,2.8,0.8c1-2.6,2-5.3,2.7-8C125.5,129,122.7,128.2,122.2,130
	L122.2,130z"/>
<path d="M87.7,134.5c1,2.3,2,4.5,2.1,7c0,1.9,2.9,1.9,2.9,0c0-2.5-0.6-4.9-1.1-7.3c-0.4-1.8-3.2-1.1-2.8,0.8c0.4,2.2,1,4.3,1,6.5
	c1,0,1.9,0,2.9,0c-0.1-2.9-1.1-5.2-2.2-7.8C89.8,132,87,132.8,87.7,134.5L87.7,134.5z"/>
<path d="M125.6,145.1c1.4-0.5,2.9-1,4.4-1c1.9,0,1.9-2.9,0-2.9c-1.8,0-3.5,0.6-5.2,1.1C123.1,142.9,123.8,145.7,125.6,145.1
	L125.6,145.1z"/>
<path d="M113,188.2c0.8-0.7,1.7-0.3,2.5,0.2c1.6,1,3-1.5,1.5-2.5c-1.9-1.2-4.2-1.4-6,0.2C109.6,187.4,111.6,189.5,113,188.2
	L113,188.2z"/>
<path d="M84.5,259.3c3.6,9.5,9.4,17.8,17.3,24.2c7.6,6.2,16.6,10.3,26.1,12.6c19.8,4.9,41.4,2.1,59.9-6.4
	c18.5-8.5,35.7-24.4,38.9-45.3c0.1-0.7,0.2-1.4,0.2-2c0-1.9-2.9-1.9-2.9,0c-0.1,2.8-1,5.7-1.8,8.4c-0.8,2.7-1.9,5.1-3.2,7.5
	c-2.3,4.3-5.2,8.2-8.5,11.7c-6.8,7.3-15.2,13-24.2,17.2c-18.3,8.4-39.9,10.8-59.4,5.7c-8.6-2.3-16.9-6.3-23.8-12
	c-7.2-5.9-12.6-13.7-15.9-22.4C86.7,256.8,83.9,257.5,84.5,259.3L84.5,259.3z"/>
<path d="M172.6,243c0,6.5-0.8,13.1-2.4,19.4c-1.5,6.1-3.9,12.5-8.3,17.2c-1.3,1.4,0.8,3.4,2.1,2.1c4.5-4.9,7.1-11.3,8.8-17.7
	c1.9-6.8,2.7-14,2.8-21C175.5,241.1,172.6,241.1,172.6,243L172.6,243z"/>
<path d="M209.5,83.3c2.8,6.4-0.9,13.7-6.9,16.6c-1.7,0.8-0.2,3.3,1.5,2.5c7.6-3.6,11.4-12.8,8-20.6
	C211.2,80.2,208.7,81.6,209.5,83.3L209.5,83.3z"/>
<path d="M212.5,94.1c0.5,2.5-0.8,5-2,7c-1.3,2.2-3.1,4.2-5.1,5.9c-1.4,1.2,0.6,3.3,2.1,2.1c4.2-3.7,9-9.8,7.8-15.7
	C214.9,91.5,212.2,92.3,212.5,94.1L212.5,94.1z"/>
<path d="M94.2,253.4c-1.7,3.8-4.3,7-6.4,10.6c-0.9,1.6,1.6,3.1,2.5,1.5c2.1-3.6,4.7-6.8,6.4-10.6C97.5,253.1,95,251.7,94.2,253.4
	L94.2,253.4z"/>
<path d="M96.9,257.1c-1.8,3-4.2,5.9-5.8,9c-0.9,1.7,1.6,3.1,2.5,1.5c1.7-3.2,4-6,5.8-9C100.4,256.9,97.9,255.5,96.9,257.1
	L96.9,257.1z"/>
<path d="M98.4,260.6c-0.7,4.3-4.3,7.5-6.2,11.3c-0.9,1.7,1.6,3.1,2.5,1.5c2.1-4,5.8-7.4,6.5-12C101.4,259.6,98.6,258.8,98.4,260.6
	L98.4,260.6z"/>
<path d="M101.5,265.4c-0.7,4.4-4.1,7.7-6.2,11.3c-0.9,1.6,1.6,3.1,2.5,1.5c2.3-3.9,5.8-7.4,6.5-12
	C104.6,264.3,101.8,263.6,101.5,265.4L101.5,265.4z"/>
<path d="M103.7,270.2c-0.6,3.2-2.1,7.1-4.4,9.4c-1.3,1.4,0.8,3.4,2.1,2.1c2.6-2.7,4.5-7.1,5.2-10.7
	C106.8,269.1,104,268.3,103.7,270.2L103.7,270.2z"/>
<path d="M107.3,272.2c0.4,3.9-2.1,7.8-4,10.9c-1,1.6,1.5,3.1,2.5,1.5c2.2-3.6,4.9-8,4.4-12.4C110,270.3,107.1,270.3,107.3,272.2
	L107.3,272.2z"/>
<path d="M112.7,276.5c-0.7,2.5-1.6,4.9-2.3,7.4c-0.5,1.8-1.3,4.1,0,5.7c1.2,1.5,3.2-0.6,2.1-2.1c0.3,0.4,0.2,0.4,0.2-0.1
	c0-0.3,0.1-0.6,0.1-0.9c0.2-1,0.5-2,0.8-3c0.6-2.1,1.4-4.2,2-6.3C116,275.5,113.2,274.8,112.7,276.5L112.7,276.5z"/>
<path d="M116.9,279.7c-0.7,3.2-1.6,6.4-2.7,9.6c-0.6,1.8,2.2,2.5,2.8,0.8c1-3.1,2-6.3,2.7-9.6C120.1,278.7,117.3,277.9,116.9,279.7
	L116.9,279.7z"/>
<path d="M121.1,279.1c0,2.2-0.5,4.4-1,6.6c-0.2,1.1-0.4,2.2-0.7,3.4c-0.1,0.4-0.2,0.8-0.3,1.2c0,0.2-0.3,1,0,0.4
	c0.3-0.2,0.6-0.4,0.9-0.7c0,0,0,0,0,0c0.6,0.5,1.2,0.9,1.8,1.4c0,0,0,0,0,0c-0.2-1.8-3.1-1.9-2.9,0c0,0,0,0,0,0
	c0.1,0.8,0.9,1.8,1.8,1.4c0.9-0.4,1-1,1.2-1.9c0.3-1.2,0.5-2.5,0.8-3.8c0.5-2.6,1.1-5.3,1.2-8C124.1,277.2,121.2,277.2,121.1,279.1
	L121.1,279.1z"/>
<path d="M124.4,281.9c-0.7,3.4-0.9,7-1.1,10.5c-0.1,1.9,2.8,1.9,2.9,0c0.2-3.2,0.4-6.5,1-9.7C127.5,280.8,124.7,280,124.4,281.9
	L124.4,281.9z"/>
<path d="M127.6,282.6c0.6,4.1,0.5,8.3,0.5,12.4c0,1.9,2.9,1.9,2.9,0c0-4.4,0-8.8-0.6-13.1C130.1,280,127.3,280.8,127.6,282.6
	L127.6,282.6z"/>
<path d="M133.3,284.9c0,1.9-0.6,12.1,3.8,9.7c1.6-0.9,0.2-3.4-1.5-2.5c1.3-0.7,1.4,0.9,1.1,0.1c-0.1-0.2-0.1-0.5-0.2-0.7
	c-0.2-0.7-0.2-1.5-0.2-2.2c-0.1-1.5-0.1-3-0.1-4.5C136.2,283,133.3,283,133.3,284.9L133.3,284.9z"/>
<path d="M138.2,284.8c0.3,2.2,0.6,4.5,1,6.7c0.2,1.3,0.6,3.6,2.2,3.9c1.8,0.3,2.6-2.5,0.8-2.8c0,0,0.4,0.3,0.4,0.2
	c-0.1-0.2-0.2-0.5-0.2-0.8c-0.2-0.8-0.3-1.6-0.5-2.4c-0.3-1.9-0.5-3.7-0.8-5.6C140.7,282.1,137.9,282.9,138.2,284.8L138.2,284.8z"/>
<path d="M143.5,284.2c0.6,3.4,1.6,6.8,2.7,10.1c0.6,1.8,3.4,1,2.8-0.8c-1.1-3.3-2.1-6.7-2.7-10.1C146,281.6,143.2,282.4,143.5,284.2
	L143.5,284.2z"/>
<path d="M149.5,287.2c1.2,2.5,2,10.1,6.4,8.6c1.8-0.6,1-3.4-0.8-2.8c-0.3,0.1-0.3,0-0.1,0.1c-0.2-0.1-0.3-0.3-0.4-0.5
	c-0.4-0.6-0.6-1.3-0.8-2c-0.6-1.7-1-3.4-1.8-5C151.2,284.1,148.7,285.5,149.5,287.2L149.5,287.2z"/>
<path d="M154.8,285.6c0.9,2,1.5,4.1,2.2,6.1c0.5,1.3,1.1,3.3,2.5,3.9c1.7,0.7,3.2-1.8,1.5-2.5c-1-0.4-1.4-2.7-1.7-3.7
	c-0.6-1.8-1.2-3.7-2-5.4C156.5,282.5,154,284,154.8,285.6L154.8,285.6z"/>
<path d="M159.9,284.2c1,4.3,1.6,9.3,5.4,12c1.5,1.1,3-1.4,1.5-2.5c-3-2.1-3.3-7-4.1-10.3C162.3,281.6,159.5,282.4,159.9,284.2
	L159.9,284.2z"/>
<path d="M163.5,284.9c1.5,1.9,2.6,4.2,3.9,6.3c0.8,1.2,2.1,3.7,3.9,3.1c1.8-0.6,1-3.4-0.8-2.8c0.6-0.2,1,0.4,0.5-0.1
	c-0.3-0.3-0.5-0.6-0.7-0.9c-0.6-0.8-1.1-1.7-1.6-2.6c-1-1.7-2-3.5-3.3-5.1C164.4,281.3,162.4,283.4,163.5,284.9L163.5,284.9z"/>
<path d="M169.1,282.4c2.2,3.4,3.1,9.4,7.8,10.2c1.8,0.3,2.6-2.5,0.8-2.8c-1.8-0.3-2.6-2-3.3-3.4c-0.9-1.8-1.6-3.7-2.7-5.5
	C170.6,279.4,168.1,280.9,169.1,282.4L169.1,282.4z"/>
<path d="M174.1,281.7c1.5,1.5,2.6,3.3,3.8,5.1c0.9,1.4,2,2.8,3.4,3.7c1.6,0.9,3.1-1.6,1.5-2.5c-1.4-0.8-2.2-2.4-3.1-3.6
	c-1.1-1.6-2.2-3.2-3.5-4.6C174.9,278.3,172.8,280.3,174.1,281.7L174.1,281.7z"/>
<path d="M178.4,279c2.7,3.4,4.2,8.8,8.6,10.5c1.8,0.7,2.5-2.1,0.8-2.8c-1.7-0.6-2.8-2.7-3.6-4.1c-1.2-1.9-2.3-3.9-3.7-5.6
	C179.2,275.5,177.2,277.6,178.4,279L178.4,279z"/>
<path d="M182.4,277.7c3.7,2.3,4.7,8.3,9.4,9.2c1.8,0.3,2.6-2.5,0.8-2.8c-2-0.4-3.1-2.5-4.2-4c-1.3-1.8-2.6-3.7-4.5-4.9
	C182.2,274.2,180.8,276.7,182.4,277.7L182.4,277.7z"/>
<path d="M187.2,272.9c2.5,3.5,6,9,10.8,9.2c1.9,0.1,1.9-2.8,0-2.9c-1.7-0.1-3.2-1.6-4.3-2.7c-1.5-1.5-2.8-3.3-4-5
	C188.6,269.9,186.1,271.4,187.2,272.9L187.2,272.9z"/>
<path d="M192.8,270.4c3.8,1.2,5.6,5.9,9.6,6.9c1.8,0.5,2.6-2.3,0.8-2.8c-1.7-0.4-3.1-2.3-4.3-3.4c-1.5-1.5-3.2-2.8-5.2-3.5
	C191.8,267,191,269.8,192.8,270.4L192.8,270.4z"/>
<path d="M195.1,266.5c3.6,2.1,6.8,5.7,11,6.5c1.8,0.4,2.6-2.4,0.8-2.8c-1.8-0.4-3.3-1.4-4.8-2.4c-1.8-1.3-3.6-2.7-5.5-3.8
	C195,263.1,193.5,265.6,195.1,266.5L195.1,266.5z"/>
<path d="M199.4,262.8c3.7,2.2,7.8,6,12.4,5.5c1.8-0.2,1.9-3.1,0-2.9c-4,0.4-7.7-3.2-10.9-5.1C199.2,259.3,197.8,261.8,199.4,262.8
	L199.4,262.8z"/>
<path d="M201.8,260.3c3.3,1.1,6.6,2.4,10,3.5c1.4,0.5,7.5,2.6,6.7-1c-0.4-1.8-3.2-1-2.8,0.8c-0.2-0.7,0.3-1.5,1-1.5
	c-0.1,0-0.5,0-0.3,0c-0.6-0.1-1.1-0.2-1.6-0.4c-1.4-0.4-2.8-0.8-4.2-1.3c-2.7-0.9-5.3-1.9-7.9-2.8
	C200.8,256.9,200.1,259.7,201.8,260.3L201.8,260.3z"/>
<path d="M205,256.6c5,1.1,10.1,1.6,15.3,1.6c1.9,0,1.9-2.9,0-2.9c-4.9,0-9.7-0.5-14.5-1.5C204,253.4,203.2,256.2,205,256.6
	L205,256.6z"/>
<path d="M205.7,251.1c2.5,1.7,5.5,2.4,8.4,2.9c2.6,0.4,5.5,0.7,8.1-0.1c1.8-0.5,1-3.3-0.8-2.8c-2.2,0.7-4.7,0.4-6.9,0
	c-2.5-0.4-5.2-1.1-7.4-2.5C205.7,247.5,204.2,250.1,205.7,251.1L205.7,251.1z"/>
<path d="M206.1,248.1c5.9,1.1,11.9,1.6,17.9,2.2c1.9,0.2,1.8-2.7,0-2.9c-5.7-0.5-11.5-1.1-17.1-2.1
	C205,244.9,204.2,247.7,206.1,248.1L206.1,248.1z"/>
<path d="M208.6,244.4c4.7,0.5,9.8,0.4,14.1,2.5c1.7,0.8,3.1-1.7,1.5-2.5c-4.9-2.3-10.3-2.3-15.6-2.9
	C206.7,241.3,206.8,244.2,208.6,244.4L208.6,244.4z"/>
<g>
	<g>
		<path d="M102.4,146.9c-0.6,3-1.2,5.9-1.9,8.9c-0.6,2.5-3.8,5-4.8,7.6c-2,5.1-2.1,10.4-2.1,15.7c0,3.2,5,3.2,5,0
			c-0.1-5.7,0-11.4,3-16.4c1.2-2.1,2.8-3.3,3.6-5.6c1.1-2.7,1.3-6,1.9-8.9C107.9,145.1,103.1,143.8,102.4,146.9L102.4,146.9z"/>
	</g>
</g>
</svg>
